<svg width="28" height="28" viewBox="0 0 28 28" fill="none" xmlns="http://www.w3.org/2000/svg">
<path d="M13.9734 0C6.32319 0 0.120117 6.26875 0.120117 14C0.120117 21.7313 6.32319 28 13.9734 28C21.6237 28 27.8268 21.7313 27.8268 14C27.8268 6.26875 21.6237 0 13.9734 0ZM15.1021 17.4625C13.7446 19.3937 11.0172 19.9562 8.88976 19.1281C6.75611 18.3062 5.2409 16.0281 5.42334 13.7063C5.46973 10.8656 8.05795 8.375 10.8688 8.47188C12.217 8.40938 13.4849 9 14.5177 9.83438C14.0755 10.3406 13.6209 10.8281 13.1323 11.2812C11.8923 10.4156 10.1267 10.1687 8.88667 11.1687C7.11172 12.4094 7.03132 15.3375 8.73824 16.6719C10.3988 18.1938 13.5374 17.4375 13.9982 15.1063C12.9592 15.0906 11.914 15.1062 10.875 15.0719C10.8719 14.4437 10.8688 13.8188 10.8719 13.1906C12.6098 13.1844 14.3507 13.1812 16.0916 13.1969C16.1937 14.675 15.9989 16.2437 15.1021 17.4625ZM22.6008 14.7656C22.0813 14.7719 21.5618 14.775 21.0423 14.7781C21.0362 15.3031 21.0331 15.8281 21.0331 16.3531H19.4777C19.4715 15.8281 19.4715 15.3062 19.4684 14.7812C18.9489 14.775 18.4294 14.7719 17.9099 14.7656V13.2C18.4294 13.1937 18.9489 13.1906 19.4684 13.1906C19.4715 12.6656 19.4777 12.1406 19.4808 11.6156H21.0331L21.0423 13.1906C21.5618 13.1969 22.0813 13.1969 22.6008 13.2V14.7656Z" fill="white"/>
</svg>
