<svg width="29" height="28" viewBox="0 0 29 28" fill="none" xmlns="http://www.w3.org/2000/svg">
<path d="M16.9928 13.7561L13.7518 12.2278C13.469 12.0951 13.2366 12.2439 13.2366 12.5603V15.439C13.2366 15.7555 13.469 15.9042 13.7518 15.7715L16.9914 14.2432C17.2756 14.109 17.2756 13.8903 16.9928 13.7561ZM14.6796 0C7.02876 0 0.82666 6.26776 0.82666 13.9997C0.82666 21.7316 7.02876 27.9993 14.6796 27.9993C22.3305 27.9993 28.5326 21.7316 28.5326 13.9997C28.5326 6.26776 22.3305 0 14.6796 0ZM14.6796 19.687C7.58865 19.687 7.46455 19.041 7.46455 13.9997C7.46455 8.95832 7.58865 8.3123 14.6796 8.3123C21.7706 8.3123 21.8947 8.95832 21.8947 13.9997C21.8947 19.041 21.7706 19.687 14.6796 19.687Z" fill="white"/>
</svg>
