<svg width="28" height="28" viewBox="0 0 28 28" fill="none" xmlns="http://www.w3.org/2000/svg">
<path d="M13.8533 0C6.20225 0 0 6.26792 0 14C0 21.7321 6.20225 28 13.8533 28C21.5044 28 27.7066 21.7321 27.7066 14C27.7066 6.26792 21.5044 0 13.8533 0ZM10.4621 19.8027H7.65685V10.6794H10.4621V19.8027ZM9.04218 9.55937C8.15614 9.55937 7.58325 8.925 7.58325 8.14042C7.58325 7.33979 8.17346 6.72437 9.07825 6.72437C9.98305 6.72437 10.5372 7.33979 10.5545 8.14042C10.5545 8.925 9.98305 9.55937 9.04218 9.55937ZM20.7078 19.8027H17.9025V14.7467C17.9025 13.5698 17.4956 12.7706 16.4811 12.7706C15.7062 12.7706 15.2459 13.3117 15.0424 13.8323C14.9674 14.0175 14.9486 14.28 14.9486 14.541V19.8012H12.1419V13.5888C12.1419 12.4498 12.1058 11.4975 12.0683 10.6779H14.5056L14.634 11.9452H14.6903C15.0597 11.3502 15.9645 10.4723 17.4783 10.4723C19.3239 10.4723 20.7078 11.7221 20.7078 14.4083V19.8027Z" fill="white"/>
</svg>
