<svg width="29" height="28" viewBox="0 0 29 28" fill="none" xmlns="http://www.w3.org/2000/svg">
<path d="M14.2664 0C6.61616 0 0.413086 6.26875 0.413086 14C0.413086 21.7313 6.61616 28 14.2664 28C21.9167 28 28.1197 21.7313 28.1197 14C28.1197 6.26875 21.9167 0 14.2664 0ZM20.924 10.5531C20.9333 10.7 20.9333 10.8531 20.9333 11.0031C20.9333 15.5906 17.4762 20.875 11.1587 20.875C9.21056 20.875 7.40468 20.3031 5.88329 19.3188C6.1616 19.35 6.42753 19.3625 6.71202 19.3625C8.31999 19.3625 9.79809 18.8125 10.9762 17.8813C9.46722 17.85 8.19939 16.85 7.76648 15.475C8.29525 15.5531 8.77146 15.5531 9.3157 15.4125C8.5387 15.253 7.84031 14.8265 7.33918 14.2056C6.83805 13.5846 6.56509 12.8075 6.56668 12.0063V11.9625C7.02124 12.2219 7.5562 12.3812 8.1159 12.4031C7.64539 12.0862 7.25953 11.6569 6.99252 11.1532C6.72551 10.6495 6.58562 10.087 6.58524 9.51562C6.58524 8.86875 6.75222 8.27812 7.05217 7.76562C7.91461 8.83855 8.9908 9.71607 10.2108 10.3411C11.4308 10.9662 12.7673 11.3249 14.1334 11.3938C13.648 9.03438 15.392 7.125 17.4885 7.125C18.4781 7.125 19.3686 7.54375 19.9964 8.21875C20.7725 8.07187 21.5147 7.77812 22.1764 7.38437C21.9197 8.1875 21.3817 8.86562 20.6674 9.29375C21.3601 9.21875 22.028 9.025 22.6464 8.75313C22.1795 9.44688 21.5951 10.0625 20.924 10.5531Z" fill="white"/>
</svg>
