<svg width="24" height="24" viewBox="0 0 24 24" fill="none" xmlns="http://www.w3.org/2000/svg">
<path d="M8.65781 16.553L8.65765 16.5514C8.64448 16.4164 8.74312 16.2915 8.88742 16.2777L8.88977 16.2775C9.01157 16.2653 9.14837 16.3707 9.16229 16.5076C9.31335 18.1406 9.78432 19.3788 10.8052 20.1849C11.8078 20.9766 13.2422 21.27 15.12 21.27H15.25C17.3196 21.27 18.8704 20.9092 19.8848 19.8948C20.8992 18.8804 21.26 17.3296 21.26 15.26V8.73998C21.26 6.67035 20.8992 5.11955 19.8848 4.10518C18.8704 3.0908 17.3196 2.72998 15.25 2.72998H15.12C13.2318 2.72998 11.7903 3.02843 10.7867 3.83531C9.76815 4.65427 9.30413 5.91033 9.16275 7.56656C9.13991 7.72645 9.01292 7.81419 8.88742 7.80223L8.88743 7.80209L8.87564 7.80125C8.74625 7.79201 8.63893 7.67631 8.64852 7.52879C8.8121 5.62129 9.40024 4.33018 10.4001 3.50266C11.4112 2.6658 12.9301 2.22998 15.11 2.22998H15.24C17.6375 2.22998 19.23 2.74461 20.2327 3.74728C21.2354 4.74996 21.75 6.3425 21.75 8.73998V15.26C21.75 17.6575 21.2354 19.25 20.2327 20.2527C19.23 21.2554 17.6375 21.77 15.24 21.77H15.11C12.9445 21.77 11.4341 21.3414 10.4249 20.5176C9.42686 19.7029 8.83515 18.432 8.65781 16.553Z" fill="#6D6D6D" stroke="#6D6D6D"/>
<path d="M15.0001 12.25H3.62012C3.48626 12.25 3.37012 12.1339 3.37012 12C3.37012 11.8661 3.48626 11.75 3.62012 11.75H15.0001C15.134 11.75 15.2501 11.8661 15.2501 12C15.2501 12.1339 15.134 12.25 15.0001 12.25Z" fill="#6D6D6D" stroke="#6D6D6D"/>
<path d="M3.20639 11.6463L2.85283 11.9998L3.20639 12.3534L6.02639 15.1734C6.12113 15.2681 6.12113 15.4316 6.02639 15.5263L6.02029 15.5324L6.01441 15.5387C5.98417 15.5711 5.9253 15.5998 5.84994 15.5998C5.78539 15.5998 5.72479 15.5776 5.67349 15.5263L2.32349 12.1763C2.22876 12.0816 2.22876 11.9181 2.32349 11.8234L5.67349 8.4734C5.76823 8.37866 5.93165 8.37866 6.02639 8.4734C6.12113 8.56813 6.12113 8.73155 6.02639 8.82629L3.20639 11.6463Z" fill="#6D6D6D" stroke="#6D6D6D"/>
</svg>
