<svg width="24" height="24" viewBox="0 0 24 24" fill="none" xmlns="http://www.w3.org/2000/svg">
<path d="M12 15.25C10.2061 15.25 8.75 13.7939 8.75 12C8.75 10.2061 10.2061 8.75 12 8.75C13.7939 8.75 15.25 10.2061 15.25 12C15.25 13.7939 13.7939 15.25 12 15.25ZM12 9.25C10.4839 9.25 9.25 10.4839 9.25 12C9.25 13.5161 10.4839 14.75 12 14.75C13.5161 14.75 14.75 13.5161 14.75 12C14.75 10.4839 13.5161 9.25 12 9.25Z" fill="#6D6D6D" stroke="#6D6D6D"/>
<path d="M9.29506 21.6257L9.29505 21.6256L9.28974 21.6271C8.78935 21.7621 8.27942 21.6904 7.84725 21.4311L7.84729 21.431L7.83943 21.4265L6.11942 20.4365L6.11883 20.4361C5.62587 20.1533 5.26895 19.6936 5.11296 19.1303C4.96627 18.5647 5.04116 17.991 5.32369 17.4986L5.32465 17.4969C5.48974 17.2066 5.60884 16.9073 5.656 16.6176C5.70286 16.3298 5.68369 16.0139 5.52135 15.7369C5.21133 15.2081 4.53815 15.0298 3.9 15.0298C2.71614 15.0298 1.75 14.0637 1.75 12.8798V11.1198C1.75 9.93594 2.71614 8.9698 3.9 8.9698C4.53815 8.9698 5.21133 8.79152 5.52135 8.26266C5.8349 7.72778 5.64497 7.0482 5.32247 6.49885C5.04025 6.00567 4.96658 5.42221 5.11336 4.86774L5.11381 4.86601C5.25952 4.30744 5.61339 3.84883 6.1158 3.56521L6.1158 3.56522L6.11834 3.56377L7.84834 2.57377L7.84837 2.57382L7.85501 2.56988C8.74208 2.04392 9.92719 2.34696 10.4696 3.26429L10.4696 3.26429L10.4713 3.26705L10.5893 3.46373C10.92 4.03392 11.4019 4.4748 12.015 4.4748C12.6294 4.4748 13.1119 4.03215 13.4427 3.46032C13.4427 3.46026 13.4428 3.4602 13.4428 3.46015L13.5513 3.27266C13.5516 3.27228 13.5518 3.27191 13.552 3.27154C14.0945 2.34756 15.277 2.04423 16.1739 2.57921L16.1738 2.57926L16.1806 2.58314L17.9006 3.57314L17.9012 3.57348C18.3941 3.85633 18.7511 4.31601 18.907 4.87927C19.0537 5.44489 18.9788 6.01857 18.6963 6.51096L18.6954 6.51265C18.5303 6.80299 18.4112 7.10226 18.364 7.39196C18.3171 7.67978 18.3363 7.99572 18.4987 8.27266C18.8087 8.80152 19.4819 8.9798 20.12 8.9798C21.3039 8.9798 22.27 9.94594 22.27 11.1298V12.8898C22.27 14.0737 21.3039 15.0398 20.12 15.0398C19.4818 15.0398 18.8087 15.2181 18.4987 15.7469C18.1851 16.2818 18.375 16.9614 18.6975 17.5108C18.9824 18.0084 19.0608 18.5898 18.9084 19.1352L18.9084 19.1352L18.9062 19.1436C18.7605 19.7022 18.4066 20.1608 17.9042 20.4444L17.9017 20.4458L16.1751 21.4339C15.8657 21.6042 15.5395 21.6898 15.21 21.6898C15.05 21.6898 14.8823 21.6673 14.7042 21.6254C14.2097 21.4877 13.8 21.1779 13.5387 20.7425L13.4207 20.5458C13.0899 19.9756 12.6081 19.5348 11.995 19.5348C11.3806 19.5348 10.898 19.9775 10.5672 20.5494L10.4592 20.736C10.4589 20.7365 10.4586 20.737 10.4583 20.7375C10.1931 21.1867 9.7813 21.5002 9.29506 21.6257ZM13.8567 20.2893L13.8573 20.2903L13.9659 20.4779C13.9661 20.4783 13.9664 20.4788 13.9667 20.4792C14.1561 20.8099 14.4704 21.0428 14.8387 21.1349C15.1931 21.2235 15.5696 21.1836 15.8933 20.9909L17.6199 19.9929C17.9901 19.7793 18.2775 19.4223 18.3931 18.9886C18.5063 18.5642 18.451 18.1176 18.2331 17.7399L18.2322 17.7384C17.7242 16.865 17.7069 16.0504 18.0341 15.4779C18.3586 14.91 19.0688 14.5198 20.09 14.5198C21.0061 14.5198 21.74 13.7859 21.74 12.8698V11.1098C21.74 10.2065 21.009 9.4598 20.09 9.4598C19.0688 9.4598 18.3586 9.06961 18.0341 8.50173C17.7069 7.92916 17.7242 7.11458 18.2322 6.24119L18.2331 6.23966C18.451 5.86198 18.5063 5.41541 18.3931 4.99097C18.2776 4.55795 18.0025 4.21577 17.642 3.99397L17.6353 3.98979L17.6283 3.98583L15.903 2.9985C15.2278 2.59456 14.3551 2.83599 13.9595 3.50543L13.9595 3.50542L13.9573 3.50928L13.8473 3.69928L13.8467 3.70032C13.3372 4.58515 12.6503 4.9998 11.99 4.9998C11.3308 4.9998 10.6449 4.58644 10.1357 3.70443L10.0281 3.50884L10.024 3.50138L10.0196 3.49406C9.6304 2.84013 8.76766 2.60906 8.09931 2.99718C8.0991 2.9973 8.0989 2.99742 8.09869 2.99754L6.37014 3.99671C6.37005 3.99676 6.36995 3.99681 6.36986 3.99687C6.36983 3.99688 6.36981 3.9969 6.36978 3.99691C5.99973 4.21053 5.7125 4.56739 5.59688 5.00097C5.4837 5.42541 5.53902 5.87198 5.7569 6.24966L5.75779 6.25119C6.26579 7.12458 6.28306 7.93916 5.95588 8.51173C5.63137 9.07961 4.9212 9.4698 3.9 9.4698C2.98386 9.4698 2.25 10.2037 2.25 11.1198V12.8798C2.25 13.7831 2.98103 14.5298 3.9 14.5298C4.9212 14.5298 5.63137 14.92 5.95588 15.4879C6.28306 16.0604 6.26579 16.875 5.75779 17.7484L5.75691 17.7499C5.53902 18.1276 5.4837 18.5742 5.59688 18.9986C5.71235 19.4317 5.98753 19.7738 6.34795 19.9956L6.35474 19.9998L6.36166 20.0038L8.08504 20.99C8.41615 21.1917 8.80356 21.2349 9.15373 21.1442C9.53454 21.0483 9.836 20.7985 10.0251 20.493L10.029 20.4867L10.0327 20.4803L10.1422 20.2912C10.1423 20.2911 10.1424 20.2909 10.1424 20.2908C10.6537 19.412 11.3419 18.9898 12 18.9898C12.6603 18.9898 13.3472 19.4044 13.8567 20.2893Z" fill="#6D6D6D" stroke="#6D6D6D"/>
</svg>
