<svg width="24" height="25" viewBox="0 0 24 25" fill="none" xmlns="http://www.w3.org/2000/svg">
<path d="M20.6201 8.95C19.5701 4.33 15.5401 2.25 12.0001 2.25C12.0001 2.25 12.0001 2.25 11.9901 2.25C8.4601 2.25 4.4201 4.32 3.3701 8.94C2.2001 14.1 5.3601 18.47 8.2201 21.22C9.2801 22.24 10.6401 22.75 12.0001 22.75C13.3601 22.75 14.7201 22.24 15.7701 21.22C18.6301 18.47 21.7901 14.11 20.6201 8.95ZM12.0001 13.96C10.2601 13.96 8.8501 12.55 8.8501 10.81C8.8501 9.07 10.2601 7.66 12.0001 7.66C13.7401 7.66 15.1501 9.07 15.1501 10.81C15.1501 12.55 13.7401 13.96 12.0001 13.96Z" fill="white"/>
</svg>
