<svg width="37" height="37" viewBox="0 0 37 37" fill="none" xmlns="http://www.w3.org/2000/svg">
<path d="M31.1572 12.0558L19.2863 18.9316C18.8084 19.2091 18.2072 19.2091 17.7138 18.9316L5.843 12.0558C4.99509 11.5625 4.77925 10.4062 5.42675 9.68164C5.87384 9.17289 6.38259 8.75664 6.92217 8.46372L15.278 3.83872C17.0663 2.83664 19.9647 2.83664 21.753 3.83872L30.1088 8.46372C30.6484 8.75664 31.1572 9.1883 31.6043 9.68164C32.2209 10.4062 32.0051 11.5625 31.1572 12.0558Z" fill="#F0D39D"/>
<path d="M17.6213 21.7991V32.3133C17.6213 33.485 16.4342 34.2558 15.3859 33.7471C12.2101 32.19 6.86049 29.2762 6.86049 29.2762C4.97965 28.2125 3.43799 25.53 3.43799 23.3254V15.3704C3.43799 14.1525 4.71757 13.3816 5.7659 13.9829L16.8505 20.4116C17.313 20.7046 17.6213 21.2287 17.6213 21.7991Z" fill="#F0D39D"/>
<path d="M19.3789 21.7991V32.3133C19.3789 33.485 20.566 34.2558 21.6143 33.7471C24.7902 32.19 30.1397 29.2762 30.1397 29.2762C32.0206 28.2125 33.5622 25.53 33.5622 23.3254V15.3704C33.5622 14.1525 32.2827 13.3816 31.2343 13.9829L20.1497 20.4116C19.6872 20.7046 19.3789 21.2287 19.3789 21.7991Z" fill="#F0D39D"/>
</svg>
