<svg width="37" height="37" viewBox="0 0 37 37" fill="none" xmlns="http://www.w3.org/2000/svg">
<path d="M19.6562 24.5433H20.6583C21.6604 24.5433 22.4929 23.6491 22.4929 22.57C22.4929 21.2287 22.015 20.9666 21.2288 20.6891L19.6717 20.1495V24.5433H19.6562Z" fill="#026583"/>
<path d="M18.4538 2.92923C9.94377 2.96006 3.05252 9.88214 3.08336 18.3921C3.11419 26.9021 10.0363 33.7934 18.5463 33.7626C27.0563 33.7317 33.9475 26.8096 33.9167 18.2996C33.8859 9.78964 26.9638 2.91381 18.4538 2.92923ZM21.9842 18.5001C23.1867 18.9163 24.8054 19.8105 24.8054 22.5701C24.8054 24.9442 22.94 26.8559 20.6584 26.8559H19.6563V27.7501C19.6563 28.3821 19.1321 28.9063 18.5 28.9063C17.8679 28.9063 17.3438 28.3821 17.3438 27.7501V26.8559H16.7888C14.2604 26.8559 12.21 24.7284 12.21 22.1076C12.21 21.4755 12.7342 20.9513 13.3663 20.9513C13.9984 20.9513 14.5225 21.4755 14.5225 22.1076C14.5225 23.4488 15.54 24.5434 16.7888 24.5434H17.3438V19.3326L15.0159 18.5001C13.8134 18.0838 12.1946 17.1896 12.1946 14.4301C12.1946 12.0559 14.06 10.1442 16.3417 10.1442H17.3438V9.25006C17.3438 8.61797 17.8679 8.09381 18.5 8.09381C19.1321 8.09381 19.6563 8.61797 19.6563 9.25006V10.1442H20.2113C22.7396 10.1442 24.79 12.2717 24.79 14.8926C24.79 15.5246 24.2659 16.0488 23.6338 16.0488C23.0017 16.0488 22.4775 15.5246 22.4775 14.8926C22.4775 13.5513 21.46 12.4567 20.2113 12.4567H19.6563V17.6676L21.9842 18.5001Z" fill="#026583"/>
<path d="M14.5225 14.4454C14.5225 15.7867 15.0004 16.0487 15.7866 16.3262L17.3437 16.8658V12.4567H16.3416C15.3395 12.4567 14.5225 13.3508 14.5225 14.4454Z" fill="#026583"/>
</svg>
