<svg width="37" height="37" viewBox="0 0 37 37" fill="none" xmlns="http://www.w3.org/2000/svg">
<path d="M33.146 23.8959C33.5777 23.8959 33.9168 24.235 33.9168 24.6667V26.2084C33.9168 28.7675 31.851 30.8334 29.2918 30.8334C29.2918 28.2896 27.2106 26.2084 24.6668 26.2084C22.1231 26.2084 20.0418 28.2896 20.0418 30.8334H16.9585C16.9585 28.2896 14.8772 26.2084 12.3335 26.2084C9.78975 26.2084 7.7085 28.2896 7.7085 30.8334C5.14933 30.8334 3.0835 28.7675 3.0835 26.2084V23.125C3.0835 22.2771 3.77725 21.5834 4.62516 21.5834H19.271C21.3985 21.5834 23.1252 19.8567 23.1252 17.7292V9.25004C23.1252 8.40212 23.8189 7.70837 24.6668 7.70837H25.9618C27.0718 7.70837 28.0893 8.30962 28.6443 9.26546L29.631 10.9921C29.7697 11.2388 29.5847 11.5625 29.2918 11.5625C27.1643 11.5625 25.4377 13.2892 25.4377 15.4167V20.0417C25.4377 22.1692 27.1643 23.8959 29.2918 23.8959H33.146Z" fill="#9747FF"/>
<path d="M12.3333 33.9167C14.0362 33.9167 15.4167 32.5362 15.4167 30.8333C15.4167 29.1305 14.0362 27.75 12.3333 27.75C10.6305 27.75 9.25 29.1305 9.25 30.8333C9.25 32.5362 10.6305 33.9167 12.3333 33.9167Z" fill="#9747FF"/>
<path d="M24.6668 33.9167C26.3697 33.9167 27.7502 32.5362 27.7502 30.8333C27.7502 29.1305 26.3697 27.75 24.6668 27.75C22.964 27.75 21.5835 29.1305 21.5835 30.8333C21.5835 32.5362 22.964 33.9167 24.6668 33.9167Z" fill="#9747FF"/>
<path d="M33.9167 19.3171V21.5833H29.2917C28.4437 21.5833 27.75 20.8896 27.75 20.0417V15.4167C27.75 14.5688 28.4437 13.875 29.2917 13.875H31.2804L33.5158 17.7908C33.7779 18.2533 33.9167 18.7775 33.9167 19.3171Z" fill="#9747FF"/>
<path d="M20.1652 3.08337H8.77225C5.62725 3.08337 3.0835 5.62712 3.0835 8.77212V18.608C3.0835 19.4559 3.77725 20.1496 4.62516 20.1496H18.7314C20.3039 20.1496 21.5835 18.87 21.5835 17.2975V4.50171C21.5835 3.71546 20.9514 3.08337 20.1652 3.08337ZM15.5247 10.8996L12.3027 14.0138C12.0714 14.2296 11.7785 14.3375 11.501 14.3375C11.2081 14.3375 10.9152 14.2296 10.6993 14.0138L9.14225 12.5338C8.67975 12.0867 8.66433 11.3467 9.11141 10.8842C9.54308 10.4217 10.2831 10.4217 10.7456 10.8534L11.501 11.578L13.9214 9.23462C14.3839 8.78754 15.1085 8.80296 15.5556 9.26546C16.0027 9.72796 15.9872 10.4525 15.5247 10.8996Z" fill="#9747FF"/>
</svg>
